<svg width="135" height="35" viewBox="0 0 135 35" fill="none" xmlns="http://www.w3.org/2000/svg">
<path d="M43.9091 9.15625C43.8097 8.81061 43.67 8.50521 43.4901 8.24006C43.3101 7.97017 43.09 7.7429 42.8295 7.55824C42.5739 7.36884 42.2803 7.22443 41.9489 7.125C41.6222 7.02557 41.2599 6.97585 40.8622 6.97585C40.1188 6.97585 39.4654 7.16051 38.902 7.52983C38.3433 7.89915 37.9077 8.43655 37.5952 9.14205C37.2827 9.8428 37.1264 10.6998 37.1264 11.7131C37.1264 12.7263 37.2803 13.5881 37.5881 14.2983C37.8958 15.0085 38.3314 15.5507 38.8949 15.9247C39.4583 16.294 40.1236 16.4787 40.8906 16.4787C41.5866 16.4787 42.1809 16.3556 42.6733 16.1094C43.1705 15.8584 43.5492 15.5057 43.8097 15.0511C44.0748 14.5966 44.2074 14.0592 44.2074 13.4389L44.8324 13.5312H41.0824V11.2159H47.169V13.0483C47.169 14.3267 46.8991 15.4252 46.3594 16.3438C45.8196 17.2576 45.0762 17.9631 44.1293 18.4602C43.1823 18.9527 42.098 19.1989 40.8764 19.1989C39.5128 19.1989 38.3149 18.8982 37.2827 18.2969C36.2505 17.6908 35.4455 16.8314 34.8679 15.7188C34.295 14.6013 34.0085 13.2756 34.0085 11.7415C34.0085 10.5625 34.179 9.51136 34.5199 8.58807C34.8655 7.66004 35.3485 6.87405 35.9688 6.23011C36.589 5.58617 37.3111 5.09612 38.1349 4.75994C38.9588 4.42377 39.8513 4.25568 40.8125 4.25568C41.6364 4.25568 42.4034 4.37642 43.1136 4.6179C43.8239 4.85464 44.4536 5.19081 45.0028 5.62642C45.5568 6.06203 46.009 6.58049 46.3594 7.18182C46.7098 7.77841 46.9347 8.43655 47.0341 9.15625H43.9091ZM49.479 19V4.45455H59.2802V6.99006H52.5543V10.456H58.7759V12.9915H52.5543V16.4645H59.3086V19H49.479ZM75.0916 11.7273C75.0916 13.3134 74.791 14.6629 74.1896 15.7756C73.593 16.8883 72.7786 17.7382 71.7464 18.3253C70.719 18.9077 69.5637 19.1989 68.2805 19.1989C66.9879 19.1989 65.8279 18.9053 64.8004 18.3182C63.773 17.7311 62.9609 16.8812 62.3643 15.7685C61.7678 14.6558 61.4695 13.3087 61.4695 11.7273C61.4695 10.1411 61.7678 8.79167 62.3643 7.67898C62.9609 6.56629 63.773 5.71875 64.8004 5.13636C65.8279 4.54924 66.9879 4.25568 68.2805 4.25568C69.5637 4.25568 70.719 4.54924 71.7464 5.13636C72.7786 5.71875 73.593 6.56629 74.1896 7.67898C74.791 8.79167 75.0916 10.1411 75.0916 11.7273ZM71.9737 11.7273C71.9737 10.6998 71.8198 9.83333 71.5121 9.12784C71.209 8.42235 70.7805 7.88731 70.2266 7.52273C69.6726 7.15814 69.0239 6.97585 68.2805 6.97585C67.5372 6.97585 66.8885 7.15814 66.3345 7.52273C65.7805 7.88731 65.3497 8.42235 65.0419 9.12784C64.7389 9.83333 64.5874 10.6998 64.5874 11.7273C64.5874 12.7547 64.7389 13.6212 65.0419 14.3267C65.3497 15.0322 65.7805 15.5672 66.3345 15.9318C66.8885 16.2964 67.5372 16.4787 68.2805 16.4787C69.0239 16.4787 69.6726 16.2964 70.2266 15.9318C70.7805 15.5672 71.209 15.0322 71.5121 14.3267C71.8198 13.6212 71.9737 12.7547 71.9737 11.7273ZM77.3697 19V4.45455H83.1083C84.2068 4.45455 85.1443 4.65104 85.9208 5.04403C86.7021 5.43229 87.2963 5.9839 87.7035 6.69886C88.1154 7.40909 88.3214 8.24479 88.3214 9.20597C88.3214 10.1719 88.113 11.0028 87.6964 11.6989C87.2797 12.3902 86.676 12.9205 85.8853 13.2898C85.0993 13.6591 84.1476 13.8438 83.0302 13.8438H79.1879V11.3722H82.533C83.1201 11.3722 83.6078 11.2917 83.9961 11.1307C84.3844 10.9697 84.6732 10.7282 84.8626 10.4062C85.0567 10.0843 85.1538 9.68419 85.1538 9.20597C85.1538 8.72301 85.0567 8.31581 84.8626 7.98438C84.6732 7.65294 84.382 7.40199 83.989 7.23153C83.6007 7.05634 83.1107 6.96875 82.5188 6.96875H80.445V19H77.3697ZM85.2248 12.3807L88.8398 19H85.445L81.908 12.3807H85.2248ZM100.14 9.15625C100.04 8.81061 99.9005 8.50521 99.7205 8.24006C99.5406 7.97017 99.3204 7.7429 99.06 7.55824C98.8043 7.36884 98.5108 7.22443 98.1793 7.125C97.8526 7.02557 97.4904 6.97585 97.0927 6.97585C96.3493 6.97585 95.6959 7.16051 95.1325 7.52983C94.5737 7.89915 94.1381 8.43655 93.8256 9.14205C93.5131 9.8428 93.3569 10.6998 93.3569 11.7131C93.3569 12.7263 93.5108 13.5881 93.8185 14.2983C94.1263 15.0085 94.5619 15.5507 95.1254 15.9247C95.6888 16.294 96.354 16.4787 97.1211 16.4787C97.8171 16.4787 98.4113 16.3556 98.9038 16.1094C99.4009 15.8584 99.7797 15.5057 100.04 15.0511C100.305 14.5966 100.438 14.0592 100.438 13.4389L101.063 13.5312H97.3129V11.2159H103.4V13.0483C103.4 14.3267 103.13 15.4252 102.59 16.3438C102.05 17.2576 101.307 17.9631 100.36 18.4602C99.4128 18.9527 98.3285 19.1989 97.1069 19.1989C95.7433 19.1989 94.5453 18.8982 93.5131 18.2969C92.4809 17.6908 91.676 16.8314 91.0984 15.7188C90.5254 14.6013 90.239 13.2756 90.239 11.7415C90.239 10.5625 90.4094 9.51136 90.7504 8.58807C91.096 7.66004 91.579 6.87405 92.1992 6.23011C92.8195 5.58617 93.5415 5.09612 94.3654 4.75994C95.1893 4.42377 96.0818 4.25568 97.043 4.25568C97.8668 4.25568 98.6339 4.37642 99.3441 4.6179C100.054 4.85464 100.684 5.19081 101.233 5.62642C101.787 6.06203 102.239 6.58049 102.59 7.18182C102.94 7.77841 103.165 8.43655 103.265 9.15625H100.14ZM105.71 19V4.45455H115.511V6.99006H108.785V10.456H115.006V12.9915H108.785V16.4645H115.539V19H105.71ZM120.434 4.45455V5.98864C120.434 6.42424 120.349 6.86932 120.179 7.32386C120.013 7.77367 119.79 8.19981 119.511 8.60227C119.232 9 118.926 9.33854 118.595 9.6179L117.26 8.82955C117.496 8.45549 117.705 8.04119 117.885 7.58665C118.069 7.1321 118.162 6.60417 118.162 6.00284V4.45455H120.434ZM130.397 8.63778C130.34 8.06487 130.096 7.61979 129.665 7.30256C129.235 6.98532 128.65 6.8267 127.911 6.8267C127.409 6.8267 126.986 6.89773 126.64 7.03977C126.294 7.17708 126.029 7.36884 125.844 7.61506C125.665 7.86127 125.575 8.14062 125.575 8.45312C125.565 8.71354 125.62 8.94081 125.738 9.13494C125.861 9.32907 126.029 9.49716 126.242 9.6392C126.455 9.77651 126.701 9.89725 126.981 10.0014C127.26 10.1009 127.558 10.1861 127.876 10.2571L129.183 10.5696C129.817 10.7116 130.399 10.901 130.93 11.1378C131.46 11.3745 131.919 11.6657 132.308 12.0114C132.696 12.357 132.996 12.7642 133.21 13.233C133.427 13.7017 133.539 14.2391 133.543 14.8452C133.539 15.7353 133.311 16.5071 132.862 17.1605C132.416 17.8092 131.772 18.3134 130.93 18.6733C130.092 19.0284 129.081 19.206 127.897 19.206C126.723 19.206 125.7 19.026 124.829 18.6662C123.962 18.3063 123.285 17.7737 122.798 17.0682C122.315 16.358 122.061 15.4796 122.038 14.4332H125.013C125.047 14.9209 125.186 15.3281 125.433 15.6548C125.683 15.9768 126.017 16.2206 126.434 16.3864C126.855 16.5473 127.331 16.6278 127.862 16.6278C128.382 16.6278 128.835 16.5521 129.218 16.4006C129.606 16.2491 129.907 16.0384 130.12 15.7685C130.333 15.4986 130.44 15.1884 130.44 14.8381C130.44 14.5114 130.343 14.2367 130.148 14.0142C129.959 13.7917 129.68 13.6023 129.31 13.446C128.946 13.2898 128.498 13.1477 127.968 13.0199L126.384 12.6222C125.158 12.3239 124.19 11.8575 123.479 11.223C122.769 10.5885 122.416 9.7339 122.421 8.65909C122.416 7.77841 122.651 7.009 123.124 6.35085C123.603 5.69271 124.258 5.17898 125.092 4.80966C125.925 4.44034 126.872 4.25568 127.933 4.25568C129.012 4.25568 129.954 4.44034 130.759 4.80966C131.569 5.17898 132.199 5.69271 132.648 6.35085C133.098 7.009 133.33 7.77131 133.344 8.63778H130.397Z" fill="#000F0A"/>
<path d="M39.5455 25.0938C39.4858 24.8864 39.402 24.7031 39.294 24.544C39.1861 24.3821 39.054 24.2457 38.8977 24.1349C38.7443 24.0213 38.5682 23.9347 38.3693 23.875C38.1733 23.8153 37.956 23.7855 37.7173 23.7855C37.2713 23.7855 36.8793 23.8963 36.5412 24.1179C36.206 24.3395 35.9446 24.6619 35.7571 25.0852C35.5696 25.5057 35.4759 26.0199 35.4759 26.6278C35.4759 27.2358 35.5682 27.7528 35.7528 28.179C35.9375 28.6051 36.1989 28.9304 36.5369 29.1548C36.875 29.3764 37.2741 29.4872 37.7344 29.4872C38.152 29.4872 38.5085 29.4134 38.804 29.2656C39.1023 29.1151 39.3295 28.9034 39.4858 28.6307C39.6449 28.358 39.7244 28.0355 39.7244 27.6634L40.0994 27.7188H37.8494V26.3295H41.5014V27.429C41.5014 28.196 41.3395 28.8551 41.0156 29.4062C40.6918 29.9545 40.2457 30.3778 39.6776 30.6761C39.1094 30.9716 38.4588 31.1193 37.7259 31.1193C36.9077 31.1193 36.1889 30.9389 35.5696 30.5781C34.9503 30.2145 34.4673 29.6989 34.1207 29.0312C33.777 28.3608 33.6051 27.5653 33.6051 26.6449C33.6051 25.9375 33.7074 25.3068 33.9119 24.7528C34.1193 24.196 34.4091 23.7244 34.7812 23.3381C35.1534 22.9517 35.5866 22.6577 36.081 22.456C36.5753 22.2543 37.1108 22.1534 37.6875 22.1534C38.1818 22.1534 38.642 22.2259 39.0682 22.3707C39.4943 22.5128 39.8722 22.7145 40.2017 22.9759C40.5341 23.2372 40.8054 23.5483 41.0156 23.9091C41.2259 24.267 41.3608 24.6619 41.4205 25.0938H39.5455ZM44.1222 31H42.1449L45.1577 22.2727H47.5355L50.544 31H48.5668L46.3807 24.267H46.3125L44.1222 31ZM43.9986 27.5696H48.669V29.0099H43.9986V27.5696ZM51.5945 31V22.2727H55.0376C55.6967 22.2727 56.2592 22.3906 56.7251 22.6264C57.1939 22.8594 57.5504 23.1903 57.7947 23.6193C58.0419 24.0455 58.1655 24.5469 58.1655 25.1236C58.1655 25.7031 58.0405 26.2017 57.7905 26.6193C57.5405 27.0341 57.1783 27.3523 56.7038 27.5739C56.2322 27.7955 55.6612 27.9062 54.9908 27.9062H52.6854V26.4233H54.6925C55.0447 26.4233 55.3374 26.375 55.5703 26.2784C55.8033 26.1818 55.9766 26.0369 56.0902 25.8438C56.2067 25.6506 56.2649 25.4105 56.2649 25.1236C56.2649 24.8338 56.2067 24.5895 56.0902 24.3906C55.9766 24.1918 55.8018 24.0412 55.5661 23.9389C55.3331 23.8338 55.0391 23.7812 54.6839 23.7812H53.4396V31H51.5945ZM56.3075 27.0284L58.4766 31H56.4396L54.3175 27.0284H56.3075ZM62.5632 31H59.4695V22.2727H62.5888C63.4666 22.2727 64.2223 22.4474 64.8558 22.7969C65.4893 23.1435 65.9766 23.642 66.3175 24.2926C66.6612 24.9432 66.8331 25.7216 66.8331 26.6278C66.8331 27.5369 66.6612 28.3182 66.3175 28.9716C65.9766 29.625 65.4865 30.1264 64.8473 30.4759C64.2109 30.8253 63.4496 31 62.5632 31ZM61.3146 29.419H62.4865C63.032 29.419 63.4908 29.3224 63.8629 29.1293C64.2379 28.9332 64.5192 28.6307 64.7067 28.2216C64.897 27.8097 64.9922 27.2784 64.9922 26.6278C64.9922 25.983 64.897 25.456 64.7067 25.0469C64.5192 24.6378 64.2393 24.3366 63.8672 24.1435C63.495 23.9503 63.0362 23.8537 62.4908 23.8537H61.3146V29.419ZM68.1999 31V22.2727H74.0806V23.794H70.0451V25.8736H73.7781V27.3949H70.0451V29.4787H74.0977V31H68.1999ZM82.8473 22.2727V31H81.2536L77.4567 25.5071H77.3928V31H75.5476V22.2727H77.1669L80.9339 27.7614H81.0107V22.2727H82.8473ZM94.8494 25.3281H92.983C92.9489 25.0866 92.8793 24.8722 92.7741 24.6847C92.669 24.4943 92.5341 24.3324 92.3693 24.1989C92.2045 24.0653 92.0142 23.9631 91.7983 23.892C91.5852 23.821 91.3537 23.7855 91.1037 23.7855C90.652 23.7855 90.2585 23.8977 89.9233 24.1222C89.5881 24.3437 89.3281 24.6676 89.1435 25.0938C88.9588 25.517 88.8665 26.0312 88.8665 26.6364C88.8665 27.2585 88.9588 27.7812 89.1435 28.2045C89.331 28.6278 89.5923 28.9474 89.9276 29.1634C90.2628 29.3793 90.6506 29.4872 91.0909 29.4872C91.3381 29.4872 91.5668 29.4545 91.777 29.3892C91.9901 29.3239 92.179 29.2287 92.3438 29.1037C92.5085 28.9759 92.6449 28.821 92.7528 28.6392C92.8636 28.4574 92.9403 28.25 92.983 28.017L94.8494 28.0256C94.8011 28.4261 94.6804 28.8125 94.4872 29.1847C94.2969 29.554 94.0398 29.8849 93.7159 30.1776C93.3949 30.4673 93.0114 30.6974 92.5653 30.8679C92.1222 31.0355 91.6207 31.1193 91.0611 31.1193C90.2827 31.1193 89.5866 30.9432 88.973 30.5909C88.3622 30.2386 87.8793 29.7287 87.5241 29.0611C87.1719 28.3935 86.9957 27.5852 86.9957 26.6364C86.9957 25.6847 87.1747 24.875 87.5327 24.2074C87.8906 23.5398 88.3764 23.0312 88.9901 22.6818C89.6037 22.3295 90.294 22.1534 91.0611 22.1534C91.5668 22.1534 92.0355 22.2244 92.4673 22.3665C92.902 22.5085 93.2869 22.7159 93.6222 22.9886C93.9574 23.2585 94.2301 23.5895 94.4403 23.9815C94.6534 24.3736 94.7898 24.8224 94.8494 25.3281ZM96.1726 31V22.2727H102.053V23.794H98.0178V25.8736H101.751V27.3949H98.0178V29.4787H102.07V31H96.1726ZM110.82 22.2727V31H109.226L105.429 25.5071H105.365V31H103.52V22.2727H105.14L108.907 27.7614H108.983V22.2727H110.82ZM112.012 23.794V22.2727H119.18V23.794H116.508V31H114.684V23.794H112.012ZM120.36 31V22.2727H126.241V23.794H122.205V25.8736H125.938V27.3949H122.205V29.4787H126.258V31H120.36ZM127.708 31V22.2727H131.151C131.81 22.2727 132.373 22.3906 132.838 22.6264C133.307 22.8594 133.664 23.1903 133.908 23.6193C134.155 24.0455 134.279 24.5469 134.279 25.1236C134.279 25.7031 134.154 26.2017 133.904 26.6193C133.654 27.0341 133.292 27.3523 132.817 27.5739C132.346 27.7955 131.775 27.9062 131.104 27.9062H128.799V26.4233H130.806C131.158 26.4233 131.451 26.375 131.684 26.2784C131.917 26.1818 132.09 26.0369 132.203 25.8438C132.32 25.6506 132.378 25.4105 132.378 25.1236C132.378 24.8338 132.32 24.5895 132.203 24.3906C132.09 24.1918 131.915 24.0412 131.679 23.9389C131.446 23.8338 131.152 23.7812 130.797 23.7812H129.553V31H127.708ZM132.421 27.0284L134.59 31H132.553L130.431 27.0284H132.421Z" fill="#468672"/>
<path d="M16.8379 3.84619C15.6816 3.84619 14.5073 3.97266 13.3149 4.22559C12.1346 4.46647 10.894 4.91813 9.59326 5.58057C8.30452 6.243 7.16634 7.08008 6.17871 8.0918C5.19108 9.10352 4.37809 10.4525 3.73975 12.1387C3.1014 13.8128 2.78223 15.7098 2.78223 17.8296C2.78223 19.9494 3.1014 21.8524 3.73975 23.5386C4.37809 25.2127 5.19108 26.5496 6.17871 27.5493C7.16634 28.5369 8.30452 29.362 9.59326 30.0244C10.894 30.6748 12.1346 31.1204 13.3149 31.3613C14.5073 31.6143 15.6816 31.7407 16.8379 31.7407C18.6566 31.7407 20.2886 31.5661 21.7339 31.2168C23.1792 30.8796 24.8172 30.3496 26.6479 29.627C26.106 28.1455 25.835 26.2726 25.835 24.0083V21.3345C25.835 20.4552 27.8403 19.8771 31.8511 19.6001C31.9836 19.311 31.9836 19.028 31.8511 18.751C28.6955 18.8473 26.2324 18.8955 24.4619 18.8955C22.9805 18.8955 20.8848 18.8473 18.1748 18.751C18.0905 19.028 18.0905 19.311 18.1748 19.6001C20.957 19.8771 22.3481 20.4552 22.3481 21.3345V28.6694C21.3123 29.8498 19.4756 30.4399 16.8379 30.4399C15.4287 30.4399 14.146 30.181 12.9897 29.6631C11.8335 29.1452 10.876 28.4647 10.1172 27.6216C9.37044 26.7664 8.74414 25.7788 8.23828 24.6587C7.73242 23.5386 7.36507 22.4124 7.13623 21.2803C6.91943 20.1361 6.81104 18.9858 6.81104 17.8296C6.81104 16.3481 6.9917 14.9028 7.35303 13.4937C7.7264 12.0724 8.28646 10.7235 9.0332 9.44678C9.79199 8.15804 10.8398 7.11621 12.1768 6.32129C13.5257 5.52637 15.0794 5.12891 16.8379 5.12891C18.0182 5.12891 19.1143 5.31559 20.126 5.68896C21.1377 6.06234 21.9688 6.50195 22.6191 7.00781C23.2816 7.51367 23.9199 8.19417 24.5342 9.04932C25.1484 9.89242 25.6121 10.6271 25.9253 11.2534C26.2505 11.8677 26.6359 12.6506 27.0815 13.6021C27.4549 13.5539 27.6777 13.4214 27.75 13.2046C26.8587 9.62744 25.5098 7.17643 23.7031 5.85156C21.9085 4.51465 19.6201 3.84619 16.8379 3.84619ZM26.6479 14.415C26.13 13.2588 25.6543 12.3073 25.2207 11.5605C24.7871 10.8018 24.203 9.95866 23.4683 9.03125C22.7456 8.0918 21.8844 7.36312 20.8848 6.84521C19.8851 6.32731 18.771 6.01416 17.5425 5.90576C16.1333 5.99007 14.8927 6.41764 13.8208 7.18848C12.7489 7.94727 11.9178 8.92285 11.3276 10.1152C10.7375 11.3076 10.2979 12.5542 10.0088 13.855C9.71973 15.1437 9.5752 16.4686 9.5752 17.8296C9.5752 19.7085 9.82812 21.5031 10.334 23.2134C10.8398 24.9237 11.7251 26.4352 12.9897 27.748C14.2664 29.0488 15.8322 29.6992 17.687 29.6992C19.4093 29.6992 20.7161 29.2596 21.6074 28.3804V21.3345C21.6074 20.925 20.2645 20.5817 17.5786 20.3047C17.2534 19.4616 17.2775 18.6847 17.6509 17.9741C21.2521 18.1427 26.2324 18.1789 32.5918 18.0825C32.8688 18.8052 32.8809 19.5459 32.6279 20.3047C29.9421 20.5817 28.5991 20.925 28.5991 21.3345V24.0083C28.5991 26.2004 28.9424 28.2238 29.6289 30.0786C27.9307 30.717 26.666 31.1566 25.835 31.3975C25.016 31.6504 23.8236 31.8913 22.2578 32.1201C20.6921 32.361 18.8854 32.4814 16.8379 32.4814C15.5973 32.4814 14.3568 32.349 13.1162 32.084C11.8757 31.8311 10.5749 31.3613 9.21387 30.6748C7.85286 29.9762 6.65446 29.103 5.61865 28.0552C4.58285 27.0073 3.7277 25.6042 3.05322 23.8457C2.37874 22.0752 2.0415 20.0698 2.0415 17.8296C2.0415 15.5894 2.37272 13.59 3.03516 11.8315C3.69759 10.061 4.54069 8.64583 5.56445 7.58594C6.58822 6.52604 7.76855 5.64681 9.10547 4.94824C10.4544 4.23763 11.7432 3.75586 12.9717 3.50293C14.2122 3.23796 15.4528 3.10547 16.6934 3.10547C18.6927 3.10547 20.9089 3.3584 23.3418 3.86426C25.7868 4.37012 27.3405 4.65918 28.0029 4.73145C27.6175 6.28516 27.467 7.65218 27.5513 8.83252C27.6356 10.0008 27.9728 11.4341 28.563 13.1323C28.2137 13.8429 27.5754 14.2705 26.6479 14.415Z" fill="#468672"/>
</svg>
