<svg width="102" height="34" viewBox="0 0 102 34" fill="none" xmlns="http://www.w3.org/2000/svg">
<path d="M10.9091 9.15625C10.8097 8.81061 10.67 8.50521 10.4901 8.24006C10.3101 7.97017 10.09 7.7429 9.82955 7.55824C9.57386 7.36884 9.2803 7.22443 8.94886 7.125C8.62216 7.02557 8.25994 6.97585 7.86222 6.97585C7.11884 6.97585 6.46544 7.16051 5.90199 7.52983C5.34328 7.89915 4.90767 8.43655 4.59517 9.14205C4.28267 9.8428 4.12642 10.6998 4.12642 11.7131C4.12642 12.7263 4.2803 13.5881 4.58807 14.2983C4.89583 15.0085 5.33144 15.5507 5.89489 15.9247C6.45833 16.294 7.12358 16.4787 7.89062 16.4787C8.58665 16.4787 9.18087 16.3556 9.6733 16.1094C10.1705 15.8584 10.5492 15.5057 10.8097 15.0511C11.0748 14.5966 11.2074 14.0592 11.2074 13.4389L11.8324 13.5312H8.08239V11.2159H14.169V13.0483C14.169 14.3267 13.8991 15.4252 13.3594 16.3438C12.8196 17.2576 12.0762 17.9631 11.1293 18.4602C10.1823 18.9527 9.09801 19.1989 7.87642 19.1989C6.51278 19.1989 5.31487 18.8982 4.28267 18.2969C3.25047 17.6908 2.44555 16.8314 1.8679 15.7188C1.29498 14.6013 1.00852 13.2756 1.00852 11.7415C1.00852 10.5625 1.17898 9.51136 1.51989 8.58807C1.86553 7.66004 2.34848 6.87405 2.96875 6.23011C3.58902 5.58617 4.31108 5.09612 5.13494 4.75994C5.95881 4.42377 6.85133 4.25568 7.8125 4.25568C8.63636 4.25568 9.40341 4.37642 10.1136 4.6179C10.8239 4.85464 11.4536 5.19081 12.0028 5.62642C12.5568 6.06203 13.009 6.58049 13.3594 7.18182C13.7098 7.77841 13.9347 8.43655 14.0341 9.15625H10.9091ZM16.479 19V4.45455H26.2802V6.99006H19.5543V10.456H25.7759V12.9915H19.5543V16.4645H26.3086V19H16.479ZM42.0916 11.7273C42.0916 13.3134 41.791 14.6629 41.1896 15.7756C40.593 16.8883 39.7786 17.7382 38.7464 18.3253C37.719 18.9077 36.5637 19.1989 35.2805 19.1989C33.9879 19.1989 32.8279 18.9053 31.8004 18.3182C30.773 17.7311 29.9609 16.8812 29.3643 15.7685C28.7678 14.6558 28.4695 13.3087 28.4695 11.7273C28.4695 10.1411 28.7678 8.79167 29.3643 7.67898C29.9609 6.56629 30.773 5.71875 31.8004 5.13636C32.8279 4.54924 33.9879 4.25568 35.2805 4.25568C36.5637 4.25568 37.719 4.54924 38.7464 5.13636C39.7786 5.71875 40.593 6.56629 41.1896 7.67898C41.791 8.79167 42.0916 10.1411 42.0916 11.7273ZM38.9737 11.7273C38.9737 10.6998 38.8198 9.83333 38.5121 9.12784C38.209 8.42235 37.7805 7.88731 37.2266 7.52273C36.6726 7.15814 36.0239 6.97585 35.2805 6.97585C34.5372 6.97585 33.8885 7.15814 33.3345 7.52273C32.7805 7.88731 32.3497 8.42235 32.0419 9.12784C31.7389 9.83333 31.5874 10.6998 31.5874 11.7273C31.5874 12.7547 31.7389 13.6212 32.0419 14.3267C32.3497 15.0322 32.7805 15.5672 33.3345 15.9318C33.8885 16.2964 34.5372 16.4787 35.2805 16.4787C36.0239 16.4787 36.6726 16.2964 37.2266 15.9318C37.7805 15.5672 38.209 15.0322 38.5121 14.3267C38.8198 13.6212 38.9737 12.7547 38.9737 11.7273ZM44.3697 19V4.45455H50.1083C51.2068 4.45455 52.1443 4.65104 52.9208 5.04403C53.7021 5.43229 54.2963 5.9839 54.7035 6.69886C55.1154 7.40909 55.3214 8.24479 55.3214 9.20597C55.3214 10.1719 55.113 11.0028 54.6964 11.6989C54.2797 12.3902 53.676 12.9205 52.8853 13.2898C52.0993 13.6591 51.1476 13.8438 50.0302 13.8438H46.1879V11.3722H49.533C50.1201 11.3722 50.6078 11.2917 50.9961 11.1307C51.3844 10.9697 51.6732 10.7282 51.8626 10.4062C52.0567 10.0843 52.1538 9.68419 52.1538 9.20597C52.1538 8.72301 52.0567 8.31581 51.8626 7.98438C51.6732 7.65294 51.382 7.40199 50.989 7.23153C50.6007 7.05634 50.1107 6.96875 49.5188 6.96875H47.445V19H44.3697ZM52.2248 12.3807L55.8398 19H52.445L48.908 12.3807H52.2248ZM67.1396 9.15625C67.0401 8.81061 66.9005 8.50521 66.7205 8.24006C66.5406 7.97017 66.3204 7.7429 66.06 7.55824C65.8043 7.36884 65.5108 7.22443 65.1793 7.125C64.8526 7.02557 64.4904 6.97585 64.0927 6.97585C63.3493 6.97585 62.6959 7.16051 62.1325 7.52983C61.5737 7.89915 61.1381 8.43655 60.8256 9.14205C60.5131 9.8428 60.3569 10.6998 60.3569 11.7131C60.3569 12.7263 60.5108 13.5881 60.8185 14.2983C61.1263 15.0085 61.5619 15.5507 62.1254 15.9247C62.6888 16.294 63.354 16.4787 64.1211 16.4787C64.8171 16.4787 65.4113 16.3556 65.9038 16.1094C66.4009 15.8584 66.7797 15.5057 67.0401 15.0511C67.3053 14.5966 67.4379 14.0592 67.4379 13.4389L68.0629 13.5312H64.3129V11.2159H70.3995V13.0483C70.3995 14.3267 70.1296 15.4252 69.5898 16.3438C69.0501 17.2576 68.3067 17.9631 67.3597 18.4602C66.4128 18.9527 65.3285 19.1989 64.1069 19.1989C62.7433 19.1989 61.5453 18.8982 60.5131 18.2969C59.4809 17.6908 58.676 16.8314 58.0984 15.7188C57.5254 14.6013 57.239 13.2756 57.239 11.7415C57.239 10.5625 57.4094 9.51136 57.7504 8.58807C58.096 7.66004 58.579 6.87405 59.1992 6.23011C59.8195 5.58617 60.5415 5.09612 61.3654 4.75994C62.1893 4.42377 63.0818 4.25568 64.043 4.25568C64.8668 4.25568 65.6339 4.37642 66.3441 4.6179C67.0543 4.85464 67.6841 5.19081 68.2333 5.62642C68.7873 6.06203 69.2395 6.58049 69.5898 7.18182C69.9402 7.77841 70.1651 8.43655 70.2646 9.15625H67.1396ZM72.7095 19V4.45455H82.5107V6.99006H75.7848V10.456H82.0064V12.9915H75.7848V16.4645H82.5391V19H72.7095ZM87.4343 4.45455V5.98864C87.4343 6.42424 87.3491 6.86932 87.1786 7.32386C87.0129 7.77367 86.7904 8.19981 86.511 8.60227C86.2317 9 85.9263 9.33854 85.5948 9.6179L84.2596 8.82955C84.4963 8.45549 84.7047 8.04119 84.8846 7.58665C85.0692 7.1321 85.1616 6.60417 85.1616 6.00284V4.45455H87.4343ZM97.397 8.63778C97.3402 8.06487 97.0964 7.61979 96.6655 7.30256C96.2346 6.98532 95.6499 6.8267 94.9112 6.8267C94.4093 6.8267 93.9856 6.89773 93.6399 7.03977C93.2943 7.17708 93.0291 7.36884 92.8445 7.61506C92.6645 7.86127 92.5746 8.14062 92.5746 8.45312C92.5651 8.71354 92.6196 8.94081 92.7379 9.13494C92.861 9.32907 93.0291 9.49716 93.2422 9.6392C93.4553 9.77651 93.7015 9.89725 93.9808 10.0014C94.2602 10.1009 94.5585 10.1861 94.8757 10.2571L96.1825 10.5696C96.817 10.7116 97.3994 10.901 97.9297 11.1378C98.46 11.3745 98.9193 11.6657 99.3075 12.0114C99.6958 12.357 99.9964 12.7642 100.21 13.233C100.427 13.7017 100.539 14.2391 100.543 14.8452C100.539 15.7353 100.311 16.5071 99.8615 17.1605C99.4164 17.8092 98.7725 18.3134 97.9297 18.6733C97.0916 19.0284 96.0807 19.206 94.897 19.206C93.7228 19.206 92.7 19.026 91.8288 18.6662C90.9624 18.3063 90.2853 17.7737 89.7976 17.0682C89.3146 16.358 89.0613 15.4796 89.0376 14.4332H92.0135C92.0466 14.9209 92.1863 15.3281 92.4325 15.6548C92.6835 15.9768 93.0173 16.2206 93.4339 16.3864C93.8554 16.5473 94.3312 16.6278 94.8615 16.6278C95.3823 16.6278 95.8345 16.5521 96.218 16.4006C96.6063 16.2491 96.907 16.0384 97.12 15.7685C97.3331 15.4986 97.4396 15.1884 97.4396 14.8381C97.4396 14.5114 97.3426 14.2367 97.1484 14.0142C96.959 13.7917 96.6797 13.6023 96.3104 13.446C95.9458 13.2898 95.4983 13.1477 94.968 13.0199L93.3842 12.6222C92.1579 12.3239 91.1896 11.8575 90.4794 11.223C89.7692 10.5885 89.4164 9.7339 89.4212 8.65909C89.4164 7.77841 89.6508 7.009 90.1243 6.35085C90.6025 5.69271 91.2583 5.17898 92.0916 4.80966C92.925 4.44034 93.8719 4.25568 94.9325 4.25568C96.0121 4.25568 96.9543 4.44034 97.7592 4.80966C98.5689 5.17898 99.1986 5.69271 99.6484 6.35085C100.098 7.009 100.33 7.77131 100.344 8.63778H97.397Z" fill="#000F0A"/>
<path d="M6.54545 25.0938C6.4858 24.8864 6.40199 24.7031 6.29403 24.544C6.18608 24.3821 6.05398 24.2457 5.89773 24.1349C5.74432 24.0213 5.56818 23.9347 5.36932 23.875C5.1733 23.8153 4.95597 23.7855 4.71733 23.7855C4.27131 23.7855 3.87926 23.8963 3.54119 24.1179C3.20597 24.3395 2.9446 24.6619 2.7571 25.0852C2.5696 25.5057 2.47585 26.0199 2.47585 26.6278C2.47585 27.2358 2.56818 27.7528 2.75284 28.179C2.9375 28.6051 3.19886 28.9304 3.53693 29.1548C3.875 29.3764 4.27415 29.4872 4.73438 29.4872C5.15199 29.4872 5.50852 29.4134 5.80398 29.2656C6.10227 29.1151 6.32955 28.9034 6.4858 28.6307C6.64489 28.358 6.72443 28.0355 6.72443 27.6634L7.09943 27.7188H4.84943V26.3295H8.50142V27.429C8.50142 28.196 8.33949 28.8551 8.01562 29.4062C7.69176 29.9545 7.24574 30.3778 6.67756 30.6761C6.10938 30.9716 5.45881 31.1193 4.72585 31.1193C3.90767 31.1193 3.18892 30.9389 2.5696 30.5781C1.95028 30.2145 1.46733 29.6989 1.12074 29.0312C0.776989 28.3608 0.605114 27.5653 0.605114 26.6449C0.605114 25.9375 0.707386 25.3068 0.911932 24.7528C1.11932 24.196 1.40909 23.7244 1.78125 23.3381C2.15341 22.9517 2.58665 22.6577 3.08097 22.456C3.57528 22.2543 4.1108 22.1534 4.6875 22.1534C5.18182 22.1534 5.64205 22.2259 6.06818 22.3707C6.49432 22.5128 6.87216 22.7145 7.2017 22.9759C7.53409 23.2372 7.8054 23.5483 8.01562 23.9091C8.22585 24.267 8.3608 24.6619 8.42045 25.0938H6.54545ZM11.1222 31H9.14489L12.1577 22.2727H14.5355L17.544 31H15.5668L13.3807 24.267H13.3125L11.1222 31ZM10.9986 27.5696H15.669V29.0099H10.9986V27.5696ZM18.5945 31V22.2727H22.0376C22.6967 22.2727 23.2592 22.3906 23.7251 22.6264C24.1939 22.8594 24.5504 23.1903 24.7947 23.6193C25.0419 24.0455 25.1655 24.5469 25.1655 25.1236C25.1655 25.7031 25.0405 26.2017 24.7905 26.6193C24.5405 27.0341 24.1783 27.3523 23.7038 27.5739C23.2322 27.7955 22.6612 27.9062 21.9908 27.9062H19.6854V26.4233H21.6925C22.0447 26.4233 22.3374 26.375 22.5703 26.2784C22.8033 26.1818 22.9766 26.0369 23.0902 25.8438C23.2067 25.6506 23.2649 25.4105 23.2649 25.1236C23.2649 24.8338 23.2067 24.5895 23.0902 24.3906C22.9766 24.1918 22.8018 24.0412 22.5661 23.9389C22.3331 23.8338 22.0391 23.7812 21.6839 23.7812H20.4396V31H18.5945ZM23.3075 27.0284L25.4766 31H23.4396L21.3175 27.0284H23.3075ZM29.5632 31H26.4695V22.2727H29.5888C30.4666 22.2727 31.2223 22.4474 31.8558 22.7969C32.4893 23.1435 32.9766 23.642 33.3175 24.2926C33.6612 24.9432 33.8331 25.7216 33.8331 26.6278C33.8331 27.5369 33.6612 28.3182 33.3175 28.9716C32.9766 29.625 32.4865 30.1264 31.8473 30.4759C31.2109 30.8253 30.4496 31 29.5632 31ZM28.3146 29.419H29.4865C30.032 29.419 30.4908 29.3224 30.8629 29.1293C31.2379 28.9332 31.5192 28.6307 31.7067 28.2216C31.897 27.8097 31.9922 27.2784 31.9922 26.6278C31.9922 25.983 31.897 25.456 31.7067 25.0469C31.5192 24.6378 31.2393 24.3366 30.8672 24.1435C30.495 23.9503 30.0362 23.8537 29.4908 23.8537H28.3146V29.419ZM35.1999 31V22.2727H41.0806V23.794H37.0451V25.8736H40.7781V27.3949H37.0451V29.4787H41.0977V31H35.1999ZM49.8473 22.2727V31H48.2536L44.4567 25.5071H44.3928V31H42.5476V22.2727H44.1669L47.9339 27.7614H48.0107V22.2727H49.8473ZM61.8494 25.3281H59.983C59.9489 25.0866 59.8793 24.8722 59.7741 24.6847C59.669 24.4943 59.5341 24.3324 59.3693 24.1989C59.2045 24.0653 59.0142 23.9631 58.7983 23.892C58.5852 23.821 58.3537 23.7855 58.1037 23.7855C57.652 23.7855 57.2585 23.8977 56.9233 24.1222C56.5881 24.3437 56.3281 24.6676 56.1435 25.0938C55.9588 25.517 55.8665 26.0312 55.8665 26.6364C55.8665 27.2585 55.9588 27.7812 56.1435 28.2045C56.331 28.6278 56.5923 28.9474 56.9276 29.1634C57.2628 29.3793 57.6506 29.4872 58.0909 29.4872C58.3381 29.4872 58.5668 29.4545 58.777 29.3892C58.9901 29.3239 59.179 29.2287 59.3438 29.1037C59.5085 28.9759 59.6449 28.821 59.7528 28.6392C59.8636 28.4574 59.9403 28.25 59.983 28.017L61.8494 28.0256C61.8011 28.4261 61.6804 28.8125 61.4872 29.1847C61.2969 29.554 61.0398 29.8849 60.7159 30.1776C60.3949 30.4673 60.0114 30.6974 59.5653 30.8679C59.1222 31.0355 58.6207 31.1193 58.0611 31.1193C57.2827 31.1193 56.5866 30.9432 55.973 30.5909C55.3622 30.2386 54.8793 29.7287 54.5241 29.0611C54.1719 28.3935 53.9957 27.5852 53.9957 26.6364C53.9957 25.6847 54.1747 24.875 54.5327 24.2074C54.8906 23.5398 55.3764 23.0312 55.9901 22.6818C56.6037 22.3295 57.294 22.1534 58.0611 22.1534C58.5668 22.1534 59.0355 22.2244 59.4673 22.3665C59.902 22.5085 60.2869 22.7159 60.6222 22.9886C60.9574 23.2585 61.2301 23.5895 61.4403 23.9815C61.6534 24.3736 61.7898 24.8224 61.8494 25.3281ZM63.1726 31V22.2727H69.0533V23.794H65.0178V25.8736H68.7507V27.3949H65.0178V29.4787H69.0703V31H63.1726ZM77.82 22.2727V31H76.2262L72.4293 25.5071H72.3654V31H70.5202V22.2727H72.1396L75.9066 27.7614H75.9833V22.2727H77.82ZM79.0121 23.794V22.2727H86.1797V23.794H83.5078V31H81.6839V23.794H79.0121ZM87.3601 31V22.2727H93.2408V23.794H89.2053V25.8736H92.9382V27.3949H89.2053V29.4787H93.2578V31H87.3601ZM94.7077 31V22.2727H98.1509C98.81 22.2727 99.3725 22.3906 99.8384 22.6264C100.307 22.8594 100.664 23.1903 100.908 23.6193C101.155 24.0455 101.279 24.5469 101.279 25.1236C101.279 25.7031 101.154 26.2017 100.904 26.6193C100.654 27.0341 100.292 27.3523 99.8171 27.5739C99.3455 27.7955 98.7745 27.9062 98.104 27.9062H95.7987V26.4233H97.8058C98.158 26.4233 98.4506 26.375 98.6836 26.2784C98.9165 26.1818 99.0898 26.0369 99.2035 25.8438C99.32 25.6506 99.3782 25.4105 99.3782 25.1236C99.3782 24.8338 99.32 24.5895 99.2035 24.3906C99.0898 24.1918 98.9151 24.0412 98.6793 23.9389C98.4464 23.8338 98.1523 23.7812 97.7972 23.7812H96.5529V31H94.7077ZM99.4208 27.0284L101.59 31H99.5529L97.4308 27.0284H99.4208Z" fill="#468672"/>
</svg>
